<?xml version="1.0" standalone="no"?>
<!DOCTYPE svg PUBLIC "-//W3C//DTD SVG 1.1//EN" "http://www.w3.org/Graphics/SVG/1.1/DTD/svg11.dtd">
<svg t="1604972076817" class="icon" viewBox="0 0 1024 1024" version="1.1" xmlns="http://www.w3.org/2000/svg" p-id="1858"
    xmlns:xlink="http://www.w3.org/1999/xlink" width="64" height="64">
    <defs>
        <style type="text/css"></style>
    </defs>
    <path
        d="M514.1504 685.1072c-140.3392 0-254.1056-113.7664-254.1056-254.1056v-34.816c0-28.2112 22.8352-51.0464 51.0464-51.0464h406.1184c28.2112 0 51.0464 22.8352 51.0464 51.0464v34.816c0 140.3392-113.7664 254.1056-254.1056 254.1056z"
        fill="#FACC31" p-id="1859"></path>
    <path
        d="M756.3776 570.5216c198.4-19.3536 218.0608-203.4176 217.0368-283.136-0.512-41.6768-34.9184-75.5712-76.6464-75.5712h-102.9632v-54.272c0-42.24-34.3552-76.6464-76.6464-76.6464H311.0912c-42.24 0-76.6464 34.3552-76.6464 76.6464v54.3232H129.5872c-41.728 0-76.1344 33.8944-76.6464 75.52-0.9728 79.9744 18.8416 264.96 219.0848 283.2896 43.5712 75.2128 121.1392 128.4096 211.5584 138.2912v122.0608H342.3744c-18.0224 0-34.4064 8.9088-42.8032 23.296l-38.3488 65.6896a30.2336 30.2336 0 0 0-0.1024 30.5664c5.7856 10.0352 16.7936 16.2304 28.8256 16.2304h443.392c12.032 0 23.04-6.2464 28.8256-16.2816 5.5296-9.5744 5.4784-21.0432-0.1024-30.6176l-38.2976-65.6896c-8.3968-14.336-24.7808-23.296-42.8032-23.296h-146.176v-121.1904c94.72-6.8096 176.4864-61.1328 221.5936-139.2128z m-56.1664 345.1392H323.072l19.5072-33.4336h338.176l19.456 33.4336z m196.608-652.5952c13.8752 0 25.2928 11.2128 25.4464 24.9856 1.1264 91.4944-23.7568 200.192-141.2608 226.8672a279.00928 279.00928 0 0 0 12.9024-83.9168v-167.936h102.912zM104.1408 288.0512c0.1536-13.7728 11.5712-24.9856 25.4464-24.9856h104.8576v167.8848c0 29.44 4.608 57.7536 13.056 84.4288-119.3472-25.8048-144.5376-135.3216-143.36-227.328z m181.504 142.9504V157.5424c0-14.0288 11.4176-25.4464 25.4464-25.4464h406.1184c14.0288 0 25.4464 11.4176 25.4464 25.4464v273.4592c0 126.0032-102.5024 228.5056-228.5056 228.5056s-228.5056-102.5024-228.5056-228.5056z"
        fill="#191919" p-id="1860"></path>
    <path
        d="M703.1296 370.7392H326.6048c-14.1312 0-25.6-11.4688-25.6-25.6s11.4688-25.6 25.6-25.6h376.4736c14.1312 0 25.6 11.4688 25.6 25.6s-11.4176 25.6-25.5488 25.6z"
        fill="#191919" p-id="1861"></path>
</svg>