<?xml version="1.0" standalone="no"?>
<!DOCTYPE svg PUBLIC "-//W3C//DTD SVG 1.1//EN" "http://www.w3.org/Graphics/SVG/1.1/DTD/svg11.dtd"><svg t="1604971511155"
    class="icon" viewBox="0 0 1024 1024" version="1.1" xmlns="http://www.w3.org/2000/svg" p-id="1401"
    xmlns:xlink="http://www.w3.org/1999/xlink" width="64" height="64">
    <defs>
        <style type="text/css"></style>
    </defs>
    <path
        d="M517.2224 961.1776c-247.552 0-448.9728-201.4208-448.9728-448.9728s201.4208-448.9728 448.9728-448.9728c247.552 0 448.9728 201.4208 448.9728 448.9728s-201.4208 448.9728-448.9728 448.9728z m0-846.7456c-219.3408 0-397.7728 178.432-397.7728 397.7728s178.432 397.7728 397.7728 397.7728 397.7728-178.432 397.7728-397.7728-178.432-397.7728-397.7728-397.7728z"
        fill="#191919" p-id="1402"></path>
    <path d="M517.2224 373.9648m-165.5296 0a165.5296 165.5296 0 1 0 331.0592 0 165.5296 165.5296 0 1 0-331.0592 0Z"
        fill="#FACC31" p-id="1403"></path>
    <path
        d="M617.6768 536.4736c54.3744-33.7408 90.6752-93.952 90.6752-162.5088 0-105.3696-85.76-191.1296-191.1296-191.1296S326.0928 268.5952 326.0928 373.9648c0 68.5568 36.3008 128.768 90.6752 162.5088-90.9312 36.608-154.7776 121.344-154.7776 219.8016 0 14.1312 11.4688 25.6 25.6 25.6s25.6-11.4688 25.6-25.6c0-103.6288 91.5456-187.904 204.0832-187.904s204.032 84.2752 204.032 187.904c0 14.1312 11.4688 25.6 25.6 25.6s25.6-11.4688 25.6-25.6c-0.0512-98.5088-63.8976-183.1936-154.8288-219.8016zM377.2928 373.9648c0-77.1584 62.7712-139.9296 139.9296-139.9296 77.1584 0 139.9296 62.7712 139.9296 139.9296s-62.7712 139.9296-139.9296 139.9296c-77.1584 0-139.9296-62.7712-139.9296-139.9296z"
        fill="#191919" p-id="1404"></path>
</svg>