<svg t="1604971810815" class="icon" viewBox="0 0 1024 1024" version="1.1" xmlns="http://www.w3.org/2000/svg" p-id="1553"
    xmlns:xlink="http://www.w3.org/1999/xlink" width="64" height="64">
    <defs>
        <style type="text/css"></style>
    </defs>
    <path
        d="M143.5136 306.7904l353.4336-195.2256c5.5808-3.072 12.3392-3.1232 17.92-0.1024l362.4448 195.4304c13.312 7.168 13.056 26.368-0.4608 33.1776l-357.7344 180.4288c-5.2736 2.6624-11.5712 2.6624-16.8448 0L144.128 339.8656c-13.4144-6.7584-13.7728-25.8048-0.6144-33.0752z"
        fill="#FACC31" p-id="1554"></path>
    <path
        d="M510.6688 548.096c-6.8608 0-13.7216-1.5872-19.968-4.7104L132.608 362.752a44.21632 44.21632 0 0 1-24.32-38.7072 44.20608 44.20608 0 0 1 22.8864-39.6288l353.4336-195.2256a44.02688 44.02688 0 0 1 42.4448-0.2048l362.3936 195.4304a44.25216 44.25216 0 0 1 23.296 39.6288 44.14976 44.14976 0 0 1-24.3712 38.9632l-357.7344 180.4288c-6.2464 3.072-13.1072 4.6592-19.968 4.6592zM167.3216 322.9184l343.3472 173.1584 342.8352-172.9024-347.4944-187.392-338.688 187.136z m-23.808-16.128z"
        fill="#ccc" p-id="1555"></path>
    <path
        d="M510.6688 743.0144c-10.0352 0-20.1216-2.304-29.2864-6.912l-380.416-191.8464a25.6 25.6 0 0 1-11.3152-34.4064c6.3488-12.5952 21.76-17.664 34.4064-11.3152l380.416 191.8464c3.8912 1.9456 8.5504 1.9456 12.4416 0l380.416-191.8464a25.66144 25.66144 0 0 1 34.4064 11.3152c6.3488 12.6464 1.28 28.0064-11.3152 34.4064l-380.416 191.8464c-9.216 4.608-19.2512 6.912-29.3376 6.912z"
        fill="#ccc" p-id="1556"></path>
    <path
        d="M510.6688 955.6992c-10.0352 0-20.1216-2.304-29.2864-6.9632l-380.416-191.8464a25.6 25.6 0 0 1-11.3152-34.4064c6.3488-12.5952 21.76-17.664 34.4064-11.3152l380.416 191.8464a13.824 13.824 0 0 0 12.4416 0l380.416-191.8464a25.66144 25.66144 0 0 1 34.4064 11.3152c6.3488 12.6464 1.28 28.0064-11.3152 34.4064l-380.416 191.8464c-9.216 4.6592-19.2512 6.9632-29.3376 6.9632z"
        fill="#ccc" p-id="1557"></path>
</svg>